<svg width="200" height="200" viewBox="0 0 200 200" fill="none" xmlns="http://www.w3.org/2000/svg">
<path d="M181 100C181 111.881 178.405 123.168 173.746 133.308C161.119 160.865 133.292 180 101 180C68.7081 180 40.8811 160.865 28.2541 133.308C23.5946 123.168 21 111.881 21 100C21 55.8162 56.8162 20 101 20C145.184 20 181 55.8162 181 100Z" fill="#F4F7FC"/>
<mask id="mask0_2_1646" style="mask-type:alpha" maskUnits="userSpaceOnUse" x="20" y="20" width="160" height="160">
<path d="M180 100C180 111.881 177.405 123.168 172.746 133.308C160.119 160.865 132.292 180 100 180C67.7081 180 39.8811 160.865 27.2541 133.308C22.5946 123.168 20 111.881 20 100C20 55.8162 55.8162 20 100 20C144.184 20 180 55.8162 180 100Z" fill="#F4F7FC"/>
</mask>
<g mask="url(#mask0_2_1646)">
<g clip-path="url(#clip0_2_1646)">
<path d="M110.715 105.58C109.418 104.283 107.315 104.283 106.018 105.58L98.548 113.05L87.9498 102.452L95.42 94.9818C96.717 93.6848 96.717 91.5819 95.42 90.2852C94.1232 88.9881 92.0202 88.9881 90.7234 90.2852L83.2531 97.7556L77.2801 91.7826C75.9833 90.4855 73.8802 90.4855 72.5835 91.7826L59.3741 104.992C50.169 114.197 49.5936 128.814 57.6481 138.695C57.5403 138.779 57.4351 138.868 57.3359 138.967L41.9731 154.331C40.6761 155.628 40.6761 157.731 41.9731 159.027C42.6217 159.676 43.4715 160 44.3213 160C45.1712 160 46.0213 159.676 46.6695 159.027L62.0326 143.664C62.1317 143.565 62.2208 143.46 62.3047 143.352C66.916 147.111 72.5586 148.99 78.2012 148.99C84.65 148.99 91.0988 146.535 96.0081 141.626L109.217 128.417C110.514 127.12 110.514 125.017 109.217 123.72L103.244 117.747L110.715 110.277C112.012 108.98 112.012 106.877 110.715 105.58ZM87.9498 129.631C87.5174 130.063 86.9509 130.28 86.3842 130.28C85.8174 130.28 85.2509 130.063 84.8185 129.631L71.0392 115.852C70.1745 114.987 70.1745 113.585 71.0392 112.721C71.904 111.856 73.3056 111.856 74.1704 112.721L87.9498 126.5C88.8144 127.365 88.8144 128.767 87.9498 129.631Z" fill="url(#paint0_linear_2_1646)"/>
<path d="M160.027 45.6695C161.325 44.3727 161.325 42.2699 160.027 40.9729C158.731 39.6758 156.628 39.6758 155.331 40.9729L139.968 56.3357C139.869 56.4346 139.78 56.5396 139.696 56.6474C135.217 52.9881 129.661 50.998 123.799 50.998C117.073 50.998 110.749 53.6176 105.992 58.3741L92.783 71.5834C91.4859 72.8805 91.4859 74.983 92.783 76.2801L124.72 108.217C125.343 108.84 126.188 109.19 127.069 109.19C127.949 109.19 128.794 108.84 129.417 108.217L142.626 95.0078C147.382 90.2514 150.002 83.9275 150.002 77.2009C150.002 71.339 148.012 65.7834 144.352 61.3037C144.46 61.2198 144.565 61.131 144.664 61.0321L160.027 45.6695ZM130.2 87.5C129.767 87.9324 129.201 88.1485 128.634 88.1485C128.067 88.1485 127.501 87.9324 127.069 87.5L113.289 73.7208C112.425 72.8562 112.425 71.4542 113.289 70.5896C114.154 69.725 115.556 69.725 116.421 70.5896L130.2 84.3687C131.064 85.2333 131.064 86.6356 130.2 87.5Z" fill="url(#paint1_linear_2_1646)"/>
<path d="M73.2226 91.394C74.3941 90.2224 76.2936 90.2224 77.4652 91.3939L109.609 123.538C110.78 124.709 110.78 126.609 109.609 127.78L106.816 130.573L70.4296 94.1869L73.2226 91.394Z" fill="url(#paint2_linear_2_1646)"/>
<path d="M90.5946 90.2339C91.9256 88.9029 94.0836 88.9029 95.4146 90.2339C96.7456 91.5649 96.7456 93.7229 95.4146 95.0539L93.8201 96.6484L89.0001 91.8284L90.5946 90.2339Z" fill="#C4C4C4"/>
</g>
<g clip-path="url(#clip1_2_1646)">
<path d="M110.715 105.58C109.418 104.283 107.315 104.283 106.018 105.58L98.548 113.05L87.9498 102.452L95.42 94.9818C96.717 93.6848 96.717 91.5819 95.42 90.2852C94.1232 88.9881 92.0202 88.9881 90.7234 90.2852L83.2531 97.7556L77.2801 91.7826C75.9833 90.4855 73.8802 90.4855 72.5835 91.7826L59.3741 104.992C50.169 114.197 49.5936 128.814 57.6481 138.695C57.5403 138.779 57.4351 138.868 57.3359 138.967L41.9731 154.331C40.6761 155.628 40.6761 157.731 41.9731 159.027C42.6217 159.676 43.4715 160 44.3213 160C45.1712 160 46.0213 159.676 46.6695 159.027L62.0326 143.664C62.1317 143.565 62.2208 143.46 62.3047 143.352C66.916 147.111 72.5586 148.99 78.2012 148.99C84.65 148.99 91.0988 146.535 96.0081 141.626L109.217 128.417C110.514 127.12 110.514 125.017 109.217 123.72L103.244 117.747L110.715 110.277C112.012 108.98 112.012 106.877 110.715 105.58ZM87.9498 129.631C87.5174 130.063 86.9509 130.28 86.3842 130.28C85.8174 130.28 85.2509 130.063 84.8185 129.631L71.0392 115.852C70.1745 114.987 70.1745 113.585 71.0392 112.721C71.904 111.856 73.3056 111.856 74.1704 112.721L87.9498 126.5C88.8144 127.365 88.8144 128.767 87.9498 129.631Z" fill="url(#paint3_linear_2_1646)"/>
<path d="M160.027 45.6695C161.325 44.3727 161.325 42.2699 160.027 40.9729C158.731 39.6758 156.628 39.6758 155.331 40.9729L139.968 56.3357C139.869 56.4346 139.78 56.5396 139.696 56.6474C135.217 52.9881 129.661 50.998 123.799 50.998C117.073 50.998 110.749 53.6176 105.992 58.3741L92.783 71.5834C91.4859 72.8805 91.4859 74.983 92.783 76.2801L124.72 108.217C125.343 108.84 126.188 109.19 127.069 109.19C127.949 109.19 128.794 108.84 129.417 108.217L142.626 95.0078C147.382 90.2514 150.002 83.9275 150.002 77.2009C150.002 71.339 148.012 65.7834 144.352 61.3037C144.46 61.2198 144.565 61.131 144.664 61.0321L160.027 45.6695ZM130.2 87.5C129.767 87.9324 129.201 88.1485 128.634 88.1485C128.067 88.1485 127.501 87.9324 127.069 87.5L113.289 73.7208C112.425 72.8562 112.425 71.4542 113.289 70.5896C114.154 69.725 115.556 69.725 116.421 70.5896L130.2 84.3687C131.064 85.2333 131.064 86.6356 130.2 87.5Z" fill="url(#paint4_linear_2_1646)"/>
<path d="M73.2224 91.394C74.394 90.2225 76.2935 90.2225 77.4651 91.394L109.609 123.538C110.78 124.709 110.78 126.609 109.609 127.78L106.816 130.573L70.4295 94.187L73.2224 91.394Z" fill="url(#paint5_linear_2_1646)"/>
<path d="M129.257 108.43C128.085 109.601 126.186 109.601 125.014 108.43L92.6808 76.0961C91.5092 74.9245 91.5092 73.025 92.6808 71.8535L95.7243 68.81L132.301 105.386L129.257 108.43Z" fill="url(#paint6_linear_2_1646)"/>
<path d="M90.5949 90.234C91.9259 88.903 94.0839 88.903 95.4149 90.234C96.7459 91.565 96.7459 93.7229 95.4149 95.054L93.8204 96.6485L89.0004 91.8285L90.5949 90.234Z" fill="url(#paint7_linear_2_1646)"/>
<path d="M106.025 105.547C107.327 104.245 109.437 104.245 110.739 105.547C112.041 106.849 112.041 108.959 110.739 110.261L109 112L104.286 107.286L106.025 105.547Z" fill="url(#paint8_linear_2_1646)"/>
</g>
<path fill-rule="evenodd" clip-rule="evenodd" d="M132.303 114.854C131.481 114.952 130.893 115.699 130.991 116.521C131.089 117.344 131.835 117.931 132.658 117.833L136.63 117.36C137.453 117.262 138.04 116.516 137.942 115.693C137.844 114.871 137.098 114.283 136.275 114.381L132.303 114.854ZM115.855 131.303C115.953 130.48 116.699 129.893 117.522 129.991C118.344 130.089 118.932 130.835 118.834 131.658L118.361 135.63C118.263 136.452 117.516 137.04 116.694 136.942C115.871 136.844 115.284 136.097 115.382 135.275L115.855 131.303ZM129.374 123.566C129.655 122.787 130.514 122.382 131.293 122.663L135.057 124.019C135.836 124.299 136.24 125.159 135.96 125.938C135.679 126.718 134.82 127.122 134.04 126.841L130.277 125.486C129.497 125.205 129.093 124.346 129.374 123.566ZM123.663 130.293C123.383 129.514 123.787 128.654 124.566 128.374C125.346 128.093 126.205 128.497 126.486 129.277L127.842 133.04C128.122 133.819 127.718 134.679 126.939 134.959C126.159 135.24 125.3 134.836 125.019 134.057L123.663 130.293Z" fill="#CCD0DB"/>
<path fill-rule="evenodd" clip-rule="evenodd" d="M71.0987 84.547C71.9213 84.449 72.5087 83.7027 72.4107 82.8801C72.3127 82.0575 71.5664 81.4701 70.7438 81.5681L66.7719 82.0413C65.9493 82.1393 65.3619 82.8856 65.4599 83.7082C65.5579 84.5308 66.3042 85.1182 67.1268 85.0202L71.0987 84.547ZM87.5471 68.0986C87.4491 68.9212 86.7028 69.5086 85.8802 69.4106C85.0576 69.3126 84.4702 68.5663 84.5682 67.7437L85.0413 63.7718C85.1393 62.9492 85.8857 62.3618 86.7083 62.4598C87.5309 62.5578 88.1183 63.3041 88.0203 64.1267L87.5471 68.0986ZM74.028 75.8354C73.7472 76.6148 72.8878 77.019 72.1084 76.7383L68.3451 75.3827C67.5657 75.102 67.1614 74.2426 67.4422 73.4632C67.7229 72.6838 68.5823 72.2795 69.3617 72.5603L73.1251 73.9158C73.9045 74.1965 74.3087 75.056 74.028 75.8354ZM79.7384 69.1082C80.0191 69.8877 79.6149 70.7471 78.8355 71.0278C78.0561 71.3086 77.1966 70.9043 76.9159 70.1249L75.5603 66.3616C75.2796 65.5822 75.6839 64.7228 76.4633 64.442C77.2427 64.1613 78.1021 64.5655 78.3828 65.3449L79.7384 69.1082Z" fill="#CACEDA"/>
</g>
<defs>
<linearGradient id="paint0_linear_2_1646" x1="66.2245" y1="107.702" x2="116.566" y2="169.087" gradientUnits="userSpaceOnUse">
<stop stop-color="#E1E5EF"/>
<stop offset="1" stop-color="#B8BDC9"/>
</linearGradient>
<linearGradient id="paint1_linear_2_1646" x1="116.5" y1="58.0001" x2="165.775" y2="118.085" gradientUnits="userSpaceOnUse">
<stop stop-color="#E1E5EF"/>
<stop offset="1" stop-color="#B8BDC9"/>
</linearGradient>
<linearGradient id="paint2_linear_2_1646" x1="62.0001" y1="92.4999" x2="54.3488" y2="111.84" gradientUnits="userSpaceOnUse">
<stop stop-color="#B0B8C7"/>
<stop offset="1" stop-color="#757982"/>
</linearGradient>
<linearGradient id="paint3_linear_2_1646" x1="65.9999" y1="98.0001" x2="116.134" y2="150.016" gradientUnits="userSpaceOnUse">
<stop stop-color="#E1E5EF"/>
<stop offset="1" stop-color="#B8BDC9"/>
</linearGradient>
<linearGradient id="paint4_linear_2_1646" x1="116.5" y1="58.0001" x2="165.775" y2="118.085" gradientUnits="userSpaceOnUse">
<stop stop-color="#E1E5EF"/>
<stop offset="1" stop-color="#B8BDC9"/>
</linearGradient>
<linearGradient id="paint5_linear_2_1646" x1="62" y1="92.5" x2="54.3486" y2="111.84" gradientUnits="userSpaceOnUse">
<stop stop-color="#CACFD8"/>
<stop offset="1" stop-color="#9DA2AA"/>
</linearGradient>
<linearGradient id="paint6_linear_2_1646" x1="99.5" y1="79.5" x2="92.0802" y2="96.1794" gradientUnits="userSpaceOnUse">
<stop stop-color="#C2C7D2"/>
<stop offset="1" stop-color="#ADB0B6"/>
</linearGradient>
<linearGradient id="paint7_linear_2_1646" x1="89" y1="88" x2="95" y2="97" gradientUnits="userSpaceOnUse">
<stop stop-color="#D4DAE4"/>
<stop offset="1" stop-color="#B0B5BF"/>
</linearGradient>
<linearGradient id="paint8_linear_2_1646" x1="104.371" y1="103.456" x2="110.324" y2="112.223" gradientUnits="userSpaceOnUse">
<stop stop-color="#D4DAE4"/>
<stop offset="1" stop-color="#B0B5BF"/>
</linearGradient>
<clipPath id="clip0_2_1646">
<rect width="120" height="120" fill="white" transform="translate(41 40)"/>
</clipPath>
<clipPath id="clip1_2_1646">
<rect width="120" height="120" fill="white" transform="translate(41 40)"/>
</clipPath>
</defs>
</svg>
